G04 #@! TF.FileFunction,Legend,Top*
%FSLAX46Y46*%
G04 Gerber Fmt 4.6, Leading zero omitted, Abs format (unit mm)*
G04 Created by KiCad (PCBNEW 4.0.7-e2-6376~58~ubuntu16.04.1) date Tue Jan 16 19:55:07 2018*
%MOMM*%
%LPD*%
G01*
G04 APERTURE LIST*
%ADD10C,0.100000*%
%ADD11C,0.150000*%
%ADD12C,0.120000*%
%ADD13C,0.070000*%
G04 APERTURE END LIST*
D10*
D11*
X1215000Y8200000D02*
X1215000Y17200000D01*
X10215000Y8200000D02*
X1215000Y8200000D01*
X10215000Y17200000D02*
X10215000Y8200000D01*
X1215000Y17200000D02*
X10215000Y17200000D01*
D12*
X10920000Y2865000D02*
X10920000Y3795000D01*
X10920000Y6025000D02*
X10920000Y5095000D01*
X10920000Y6025000D02*
X8760000Y6025000D01*
X10920000Y2865000D02*
X9460000Y2865000D01*
X2575000Y5325000D02*
X3775000Y5325000D01*
X3775000Y3565000D02*
X2575000Y3565000D01*
X2575000Y3420000D02*
X3775000Y3420000D01*
X3775000Y1660000D02*
X2575000Y1660000D01*
X11310000Y6805000D02*
X11310000Y5305000D01*
X11310000Y5305000D02*
X12260000Y5305000D01*
X12260000Y5305000D02*
X12260000Y180000D01*
X21710000Y6805000D02*
X21710000Y5305000D01*
X21710000Y5305000D02*
X20760000Y5305000D01*
X20760000Y5305000D02*
X20760000Y4205000D01*
X2575000Y7230000D02*
X3775000Y7230000D01*
X3775000Y5470000D02*
X2575000Y5470000D01*
X7865000Y5045000D02*
X7865000Y3845000D01*
X6105000Y3845000D02*
X6105000Y5045000D01*
D11*
X5381667Y13247619D02*
X5381667Y12533333D01*
X5334047Y12390476D01*
X5238809Y12295238D01*
X5095952Y12247619D01*
X5000714Y12247619D01*
X6381667Y12247619D02*
X5810238Y12247619D01*
X6095952Y12247619D02*
X6095952Y13247619D01*
X6000714Y13104762D01*
X5905476Y13009524D01*
X5810238Y12961905D01*
D13*
X10112381Y1631190D02*
X10064762Y1655000D01*
X10017143Y1702619D01*
X9945714Y1774048D01*
X9898095Y1797857D01*
X9850476Y1797857D01*
X9874286Y1678810D02*
X9826667Y1702619D01*
X9779048Y1750238D01*
X9755238Y1845476D01*
X9755238Y2012143D01*
X9779048Y2107381D01*
X9826667Y2155000D01*
X9874286Y2178810D01*
X9969524Y2178810D01*
X10017143Y2155000D01*
X10064762Y2107381D01*
X10088571Y2012143D01*
X10088571Y1845476D01*
X10064762Y1750238D01*
X10017143Y1702619D01*
X9969524Y1678810D01*
X9874286Y1678810D01*
X10564762Y1678810D02*
X10279048Y1678810D01*
X10421905Y1678810D02*
X10421905Y2178810D01*
X10374286Y2107381D01*
X10326667Y2059762D01*
X10279048Y2035952D01*
X5941190Y4361667D02*
X5703095Y4195000D01*
X5941190Y4075953D02*
X5441190Y4075953D01*
X5441190Y4266429D01*
X5465000Y4314048D01*
X5488810Y4337857D01*
X5536429Y4361667D01*
X5607857Y4361667D01*
X5655476Y4337857D01*
X5679286Y4314048D01*
X5703095Y4266429D01*
X5703095Y4075953D01*
X5941190Y4837857D02*
X5941190Y4552143D01*
X5941190Y4695000D02*
X5441190Y4695000D01*
X5512619Y4647381D01*
X5560238Y4599762D01*
X5584048Y4552143D01*
X5941190Y1968572D02*
X5703095Y1801905D01*
X5941190Y1682858D02*
X5441190Y1682858D01*
X5441190Y1873334D01*
X5465000Y1920953D01*
X5488810Y1944762D01*
X5536429Y1968572D01*
X5607857Y1968572D01*
X5655476Y1944762D01*
X5679286Y1920953D01*
X5703095Y1873334D01*
X5703095Y1682858D01*
X5941190Y2182858D02*
X5607857Y2182858D01*
X5441190Y2182858D02*
X5465000Y2159048D01*
X5488810Y2182858D01*
X5465000Y2206667D01*
X5441190Y2182858D01*
X5488810Y2182858D01*
X5607857Y2349524D02*
X5607857Y2540000D01*
X5941190Y2420953D02*
X5512619Y2420953D01*
X5465000Y2444762D01*
X5441190Y2492381D01*
X5441190Y2540000D01*
X5941190Y2706667D02*
X5441190Y2706667D01*
X5631667Y2706667D02*
X5607857Y2754286D01*
X5607857Y2849524D01*
X5631667Y2897143D01*
X5655476Y2920952D01*
X5703095Y2944762D01*
X5845952Y2944762D01*
X5893571Y2920952D01*
X5917381Y2897143D01*
X5941190Y2849524D01*
X5941190Y2754286D01*
X5917381Y2706667D01*
X5941190Y3420952D02*
X5941190Y3135238D01*
X5941190Y3278095D02*
X5441190Y3278095D01*
X5512619Y3230476D01*
X5560238Y3182857D01*
X5584048Y3135238D01*
D11*
X15748095Y6262619D02*
X15748095Y5453095D01*
X15795714Y5357857D01*
X15843333Y5310238D01*
X15938571Y5262619D01*
X16129048Y5262619D01*
X16224286Y5310238D01*
X16271905Y5357857D01*
X16319524Y5453095D01*
X16319524Y6262619D01*
X17319524Y5262619D02*
X16748095Y5262619D01*
X17033809Y5262619D02*
X17033809Y6262619D01*
X16938571Y6119762D01*
X16843333Y6024524D01*
X16748095Y5976905D01*
D13*
X5941190Y6266667D02*
X5703095Y6100000D01*
X5941190Y5980953D02*
X5441190Y5980953D01*
X5441190Y6171429D01*
X5465000Y6219048D01*
X5488810Y6242857D01*
X5536429Y6266667D01*
X5607857Y6266667D01*
X5655476Y6242857D01*
X5679286Y6219048D01*
X5703095Y6171429D01*
X5703095Y5980953D01*
X5488810Y6457143D02*
X5465000Y6480953D01*
X5441190Y6528572D01*
X5441190Y6647619D01*
X5465000Y6695238D01*
X5488810Y6719048D01*
X5536429Y6742857D01*
X5584048Y6742857D01*
X5655476Y6719048D01*
X5941190Y6433334D01*
X5941190Y6742857D01*
X6901667Y1678810D02*
X6735000Y1916905D01*
X6615953Y1678810D02*
X6615953Y2178810D01*
X6806429Y2178810D01*
X6854048Y2155000D01*
X6877857Y2131190D01*
X6901667Y2083571D01*
X6901667Y2012143D01*
X6877857Y1964524D01*
X6854048Y1940714D01*
X6806429Y1916905D01*
X6615953Y1916905D01*
X7068334Y2178810D02*
X7377857Y2178810D01*
X7211191Y1988333D01*
X7282619Y1988333D01*
X7330238Y1964524D01*
X7354048Y1940714D01*
X7377857Y1893095D01*
X7377857Y1774048D01*
X7354048Y1726429D01*
X7330238Y1702619D01*
X7282619Y1678810D01*
X7139762Y1678810D01*
X7092143Y1702619D01*
X7068334Y1726429D01*
M02*
