G04 #@! TF.FileFunction,Copper,L1,Top,Signal*
%FSLAX46Y46*%
G04 Gerber Fmt 4.6, Leading zero omitted, Abs format (unit mm)*
G04 Created by KiCad (PCBNEW 4.0.7-e2-6376~58~ubuntu16.04.1) date Tue Jan 16 19:55:07 2018*
%MOMM*%
%LPD*%
G01*
G04 APERTURE LIST*
%ADD10C,0.100000*%
%ADD11C,3.000000*%
%ADD12R,1.400000X1.400000*%
%ADD13R,1.500000X1.300000*%
%ADD14R,1.100000X4.600000*%
%ADD15R,10.800000X9.400000*%
%ADD16R,5.250000X4.550000*%
%ADD17R,1.300000X1.500000*%
%ADD18C,1.000000*%
%ADD19C,0.685800*%
%ADD20C,1.016000*%
%ADD21C,1.000000*%
%ADD22C,0.152400*%
%ADD23C,0.300000*%
G04 APERTURE END LIST*
D10*
D11*
X3215000Y16200000D03*
X8215000Y16200000D03*
X8215000Y9200000D03*
X3215000Y9200000D03*
D12*
X9160000Y5395000D03*
X9160000Y3495000D03*
X11160000Y4445000D03*
D13*
X4525000Y4445000D03*
X1825000Y4445000D03*
X4525000Y2540000D03*
X1825000Y2540000D03*
D14*
X13110000Y2480000D03*
X14810000Y2480000D03*
X16510000Y2480000D03*
X18210000Y2480000D03*
X19910000Y2480000D03*
D15*
X16510000Y11630000D03*
D16*
X19285000Y14055000D03*
X13735000Y9205000D03*
X13735000Y14055000D03*
X19285000Y9205000D03*
D13*
X4525000Y6350000D03*
X1825000Y6350000D03*
D17*
X6985000Y3095000D03*
X6985000Y5795000D03*
D18*
X19811982Y5969000D03*
X18288000Y5969000D03*
D19*
X6985000Y10D03*
X1905000Y0D03*
X3175000Y5725310D03*
D18*
X18415000Y13335000D03*
X16510000Y13335000D03*
X14605000Y13335000D03*
X20320000Y13335000D03*
X12700000Y13335000D03*
D19*
X635000Y6362702D03*
D20*
X19910000Y5870982D02*
X19811982Y5969000D01*
X19910000Y2480000D02*
X19910000Y5870982D01*
X18210000Y5891000D02*
X18288000Y5969000D01*
X18210000Y2480000D02*
X18210000Y5891000D01*
D21*
X3215000Y16200000D02*
X3215000Y9200000D01*
X8215000Y16200000D02*
X8215000Y9200000D01*
D22*
X6985000Y5795000D02*
X8760000Y5795000D01*
X8760000Y5795000D02*
X9160000Y5395000D01*
X4525000Y6350000D02*
X6430000Y6350000D01*
X6430000Y6350000D02*
X6985000Y5795000D01*
X6985000Y3095000D02*
X6985000Y10D01*
X1825000Y2540000D02*
X1825000Y80000D01*
X1825000Y80000D02*
X1905000Y0D01*
X6985000Y3095000D02*
X8760000Y3095000D01*
X8760000Y3095000D02*
X9160000Y3495000D01*
X11160000Y4445000D02*
X11160000Y3592600D01*
X12407600Y2480000D02*
X13110000Y2480000D01*
X11160000Y3592600D02*
X12272600Y2480000D01*
X12272600Y2480000D02*
X12407600Y2480000D01*
X13050000Y2540000D02*
X13110000Y2480000D01*
X14810000Y2480000D02*
X14810000Y730000D01*
X6774178Y-635000D02*
X4525000Y1614178D01*
X14810000Y730000D02*
X13445000Y-635000D01*
X13445000Y-635000D02*
X6774178Y-635000D01*
X4525000Y1614178D02*
X4525000Y1737600D01*
X4525000Y1737600D02*
X4525000Y2540000D01*
X4525000Y2540000D02*
X4525000Y3342400D01*
X4525000Y3342400D02*
X4525000Y4445000D01*
D23*
X2832101Y5382411D02*
X3175000Y5725310D01*
X1905000Y4445000D02*
X1905000Y4455310D01*
X1905000Y4455310D02*
X2832101Y5382411D01*
D22*
X1905000Y4445000D02*
X1825000Y4445000D01*
D20*
X16510000Y2480000D02*
X16510000Y8890000D01*
X16510000Y8890000D02*
X14050000Y8890000D01*
X14050000Y8890000D02*
X13735000Y9205000D01*
D23*
X635000Y6362702D02*
X1812298Y6362702D01*
D22*
X1812298Y6362702D02*
X1825000Y6350000D01*
M02*
