G04 #@! TF.FileFunction,Copper,L1,Top,Signal*
%FSLAX46Y46*%
G04 Gerber Fmt 4.6, Leading zero omitted, Abs format (unit mm)*
G04 Created by KiCad (PCBNEW 4.0.7-e2-6376~58~ubuntu16.04.1) date Mon Jan 15 16:04:45 2018*
%MOMM*%
%LPD*%
G01*
G04 APERTURE LIST*
%ADD10C,0.100000*%
%ADD11C,3.000000*%
%ADD12R,0.900000X0.800000*%
%ADD13R,1.300000X1.500000*%
%ADD14R,1.100000X4.600000*%
%ADD15R,10.800000X9.400000*%
%ADD16R,5.250000X4.550000*%
%ADD17C,0.685800*%
%ADD18C,1.524000*%
%ADD19C,1.016000*%
%ADD20C,0.152400*%
G04 APERTURE END LIST*
D10*
D11*
X3215000Y16200000D03*
X8215000Y16200000D03*
X8215000Y9200000D03*
X3215000Y9200000D03*
D12*
X9160000Y3490000D03*
X9160000Y1590000D03*
X11160000Y2540000D03*
D13*
X6350000Y1270000D03*
X6350000Y3970000D03*
X3175000Y3890000D03*
X3175000Y1190000D03*
D14*
X13110000Y2480000D03*
X14810000Y2480000D03*
X16510000Y2480000D03*
X18210000Y2480000D03*
X19910000Y2480000D03*
D15*
X16510000Y11630000D03*
D16*
X19285000Y14055000D03*
X13735000Y9205000D03*
X13735000Y14055000D03*
X19285000Y9205000D03*
D17*
X18288000Y6223000D03*
X19910000Y6223000D03*
X6731000Y6350000D03*
X9144000Y0D03*
X3175000Y0D03*
X4826000Y5715000D03*
X19285000Y14055000D03*
X13735000Y14055000D03*
D18*
X3215000Y16200000D02*
X3215000Y9200000D01*
X8215000Y16200000D02*
X8215000Y9200000D01*
D19*
X18210000Y2480000D02*
X18210000Y6145000D01*
X18210000Y6145000D02*
X18288000Y6223000D01*
X19910000Y2480000D02*
X19910000Y6223000D01*
D20*
X6731000Y6350000D02*
X9160000Y3921000D01*
X9160000Y3921000D02*
X9160000Y3490000D01*
X9160000Y1590000D02*
X9160000Y16000D01*
X9160000Y16000D02*
X9144000Y0D01*
X3175000Y1190000D02*
X3175000Y0D01*
X11160000Y2540000D02*
X13050000Y2540000D01*
X13050000Y2540000D02*
X13110000Y2480000D01*
X6350000Y1270000D02*
X7152400Y1270000D01*
X7152400Y1270000D02*
X8422400Y2540000D01*
X8422400Y2540000D02*
X9908518Y2540000D01*
X9908518Y2540000D02*
X12377119Y5008601D01*
X12377119Y5008601D02*
X14031399Y5008601D01*
X14031399Y5008601D02*
X14810000Y4230000D01*
X14810000Y4230000D02*
X14810000Y2480000D01*
X3175000Y3890000D02*
X3175000Y3790000D01*
X3175000Y3790000D02*
X5695000Y1270000D01*
X5695000Y1270000D02*
X6350000Y1270000D01*
X4826000Y5715000D02*
X6350000Y4191000D01*
X6350000Y4191000D02*
X6350000Y3970000D01*
D19*
X16510000Y2480000D02*
X16510000Y8890000D01*
X16510000Y8890000D02*
X14050000Y8890000D01*
X14050000Y8890000D02*
X13735000Y9205000D01*
M02*
