G04 #@! TF.FileFunction,Copper,L2,Bot,Signal*
%FSLAX46Y46*%
G04 Gerber Fmt 4.6, Leading zero omitted, Abs format (unit mm)*
G04 Created by KiCad (PCBNEW 4.0.7-e2-6376~58~ubuntu16.04.1) date Mon Jan 15 16:04:45 2018*
%MOMM*%
%LPD*%
G01*
G04 APERTURE LIST*
%ADD10C,0.100000*%
%ADD11C,3.000000*%
%ADD12R,1.270000X2.540000*%
%ADD13R,1.270000X0.635000*%
%ADD14R,1.270000X0.304800*%
%ADD15C,0.685800*%
%ADD16C,1.524000*%
%ADD17C,0.152400*%
%ADD18C,2.540000*%
%ADD19C,2.286000*%
%ADD20C,0.508000*%
G04 APERTURE END LIST*
D10*
D11*
X3215000Y16200000D03*
X8215000Y16200000D03*
X8215000Y9200000D03*
X3215000Y9200000D03*
D12*
X0Y13335000D03*
X0Y0D03*
D13*
X0Y11430000D03*
D14*
X0Y6350000D03*
X0Y5715000D03*
X0Y5080000D03*
X0Y4445000D03*
X0Y3810000D03*
X0Y3175000D03*
X0Y2540000D03*
X0Y1905000D03*
D13*
X0Y7620000D03*
D12*
X22860000Y13335000D03*
X22860000Y0D03*
D13*
X22860000Y11430000D03*
D14*
X22860000Y6350000D03*
X22860000Y5715000D03*
X22860000Y5080000D03*
X22860000Y4445000D03*
X22860000Y3810000D03*
X22860000Y3175000D03*
X22860000Y2540000D03*
X22860000Y1905000D03*
D13*
X22860000Y7620000D03*
D15*
X18288000Y6223000D03*
X19910000Y6223000D03*
X6731000Y6350000D03*
X9144000Y0D03*
X3175000Y0D03*
X4826000Y5715000D03*
X19285000Y14055000D03*
X13735000Y14055000D03*
D16*
X8215000Y9200000D02*
X3215000Y9200000D01*
X8215000Y16200000D02*
X3215000Y16200000D01*
X18288000Y6223000D02*
X11192000Y6223000D01*
X11192000Y6223000D02*
X8215000Y9200000D01*
X19910000Y6223000D02*
X18288000Y6223000D01*
D17*
X0Y6350000D02*
X6731000Y6350000D01*
D18*
X3175000Y0D02*
X9144000Y0D01*
X9144000Y0D02*
X22860000Y0D01*
X0Y0D02*
X3175000Y0D01*
D17*
X0Y5715000D02*
X4826000Y5715000D01*
D19*
X0Y13335000D02*
X19304000Y13335000D01*
X19304000Y13335000D02*
X22860000Y13335000D01*
D17*
X19285000Y14055000D02*
X19285000Y13354000D01*
X19285000Y13354000D02*
X19304000Y13335000D01*
D20*
X22860000Y11430000D02*
X18840960Y11430000D01*
X18840960Y11430000D02*
X18504149Y11766811D01*
X18504149Y11766811D02*
X1479811Y11766811D01*
X1479811Y11766811D02*
X1143000Y11430000D01*
X1143000Y11430000D02*
X0Y11430000D01*
D17*
X0Y5080000D02*
X20320000Y5080000D01*
X20320000Y5080000D02*
X21590000Y6350000D01*
X21590000Y6350000D02*
X22860000Y6350000D01*
X0Y4445000D02*
X20320000Y4445000D01*
X20320000Y4445000D02*
X21590000Y5715000D01*
X21590000Y5715000D02*
X22860000Y5715000D01*
X0Y3810000D02*
X20320000Y3810000D01*
X20320000Y3810000D02*
X21590000Y5080000D01*
X21590000Y5080000D02*
X22860000Y5080000D01*
X0Y3175000D02*
X20320000Y3175000D01*
X20320000Y3175000D02*
X21590000Y4445000D01*
X21590000Y4445000D02*
X22860000Y4445000D01*
X0Y2540000D02*
X20320000Y2540000D01*
X20320000Y2540000D02*
X21590000Y3810000D01*
X21590000Y3810000D02*
X21696680Y3810000D01*
X21696680Y3810000D02*
X22860000Y3810000D01*
X0Y1905000D02*
X20320000Y1905000D01*
X21590000Y3175000D02*
X22860000Y3175000D01*
X20320000Y1905000D02*
X21590000Y3175000D01*
D20*
X0Y7620000D02*
X317500Y7620000D01*
X1308599Y10115073D02*
X2299927Y11106401D01*
X317500Y7620000D02*
X1308599Y8611099D01*
X1308599Y8611099D02*
X1308599Y10115073D01*
X2299927Y11106401D02*
X18230599Y11106401D01*
X18230599Y11106401D02*
X21717000Y7620000D01*
X21717000Y7620000D02*
X22860000Y7620000D01*
M02*
