G04 #@! TF.FileFunction,Copper,L1,Top,Signal*
%FSLAX46Y46*%
G04 Gerber Fmt 4.6, Leading zero omitted, Abs format (unit mm)*
G04 Created by KiCad (PCBNEW 4.0.6-e0-6349~53~ubuntu16.04.1) date Mon Jul 31 18:49:38 2017*
%MOMM*%
%LPD*%
G01*
G04 APERTURE LIST*
%ADD10C,0.100000*%
%ADD11C,0.150000*%
%ADD12R,0.900000X1.200000*%
%ADD13R,0.600000X0.450000*%
%ADD14C,3.000000*%
%ADD15R,0.700000X1.300000*%
%ADD16C,0.609600*%
%ADD17C,0.304800*%
%ADD18C,2.540000*%
G04 APERTURE END LIST*
D10*
D11*
X0Y18415000D02*
X0Y-1905000D01*
X11430000Y18415000D02*
X0Y18415000D01*
X11430000Y-1905000D02*
X11430000Y18415000D01*
X0Y-1905000D02*
X11430000Y-1905000D01*
D12*
X7365000Y3175000D03*
X4065000Y3175000D03*
D13*
X6765000Y635000D03*
X4665000Y635000D03*
D14*
X3175000Y16200000D03*
X8175000Y16200000D03*
X8175000Y9200000D03*
X3175000Y9200000D03*
D15*
X4765000Y5715000D03*
X6665000Y5715000D03*
D16*
X3810000Y6324494D03*
X3810000Y0D03*
X5725608Y7150004D03*
D17*
X8175000Y9200000D02*
X8175000Y4525000D01*
X8175000Y4525000D02*
X7620000Y3970000D01*
X7620000Y3970000D02*
X7620000Y3175000D01*
X7620000Y3175000D02*
X7365000Y3175000D01*
X7365000Y3175000D02*
X7365000Y1235000D01*
X7365000Y1235000D02*
X6765000Y635000D01*
D18*
X3175000Y9200000D02*
X3175000Y16200000D01*
X8175000Y9200000D02*
X8175000Y16200000D01*
X8175000Y9200000D02*
X3175000Y9200000D01*
D17*
X4110200Y5715000D02*
X3810000Y6015200D01*
X4765000Y5715000D02*
X4110200Y5715000D01*
X3810000Y6015200D02*
X3810000Y6324494D01*
X4430200Y4445000D02*
X4449800Y4445000D01*
X4449800Y4445000D02*
X4765000Y4760200D01*
X4765000Y4760200D02*
X4765000Y5715000D01*
X4065000Y3175000D02*
X4065000Y4079800D01*
X4065000Y4079800D02*
X4430200Y4445000D01*
X4665000Y635000D02*
X4445000Y635000D01*
X4445000Y635000D02*
X3810000Y0D01*
X5725608Y6954392D02*
X5725608Y7150004D01*
X6665000Y6015000D02*
X5725608Y6954392D01*
X6665000Y5715000D02*
X6665000Y6015000D01*
M02*
