G04 #@! TF.FileFunction,Copper,L2,Bot,Signal*
%FSLAX46Y46*%
G04 Gerber Fmt 4.6, Leading zero omitted, Abs format (unit mm)*
G04 Created by KiCad (PCBNEW 4.0.7-e2-6376~58~ubuntu16.04.1) date Sun Nov  4 22:14:27 2018*
%MOMM*%
%LPD*%
G01*
G04 APERTURE LIST*
%ADD10C,0.100000*%
%ADD11R,1.270000X2.540000*%
%ADD12R,1.270000X0.635000*%
%ADD13R,1.270000X0.304800*%
%ADD14C,0.609600*%
%ADD15C,0.304800*%
%ADD16C,2.540000*%
%ADD17C,0.508000*%
G04 APERTURE END LIST*
D10*
D11*
X0Y13335000D03*
X0Y0D03*
D12*
X0Y11430000D03*
D13*
X0Y6350000D03*
X0Y5715000D03*
X0Y5080000D03*
X0Y4445000D03*
X0Y3810000D03*
X0Y3175000D03*
X0Y2540000D03*
X0Y1905000D03*
D12*
X0Y7620000D03*
D11*
X11430000Y13335000D03*
X11430000Y0D03*
D12*
X11430000Y11430000D03*
D13*
X11430000Y6350000D03*
X11430000Y5715000D03*
X11430000Y5080000D03*
X11430000Y4445000D03*
X11430000Y3810000D03*
X11430000Y3175000D03*
X11430000Y2540000D03*
X11430000Y1905000D03*
D12*
X11430000Y7620000D03*
D14*
X3810000Y6324494D03*
X2540000Y0D03*
X3810000Y0D03*
X6731000Y7620000D03*
D15*
X3784494Y6350000D02*
X3810000Y6324494D01*
X0Y6350000D02*
X3784494Y6350000D01*
D16*
X0Y0D02*
X2540000Y0D01*
X2540000Y0D02*
X3810000Y0D01*
X3810000Y0D02*
X11430000Y0D01*
D17*
X1143000Y7620000D02*
X6731000Y7620000D01*
X6731000Y7620000D02*
X11430000Y7620000D01*
X0Y7620000D02*
X1143000Y7620000D01*
D16*
X0Y13335000D02*
X11430000Y13335000D01*
D17*
X0Y11430000D02*
X11430000Y11430000D01*
D15*
X0Y5715000D02*
X939800Y5715000D01*
X939800Y5715000D02*
X990708Y5664092D01*
X990708Y5664092D02*
X4441116Y5664092D01*
X4441116Y5664092D02*
X5127024Y6350000D01*
X5127024Y6350000D02*
X10490200Y6350000D01*
X10490200Y6350000D02*
X11430000Y6350000D01*
X0Y5080000D02*
X5201988Y5080000D01*
X5201988Y5080000D02*
X5836988Y5715000D01*
X5836988Y5715000D02*
X10490200Y5715000D01*
X10490200Y5715000D02*
X11430000Y5715000D01*
X0Y4445000D02*
X5879148Y4445000D01*
X5879148Y4445000D02*
X6514148Y5080000D01*
X6514148Y5080000D02*
X10490200Y5080000D01*
X10490200Y5080000D02*
X11430000Y5080000D01*
X0Y3810000D02*
X6605514Y3810000D01*
X6605514Y3810000D02*
X7240514Y4445000D01*
X7240514Y4445000D02*
X10490200Y4445000D01*
X10490200Y4445000D02*
X11430000Y4445000D01*
X0Y3175000D02*
X7495900Y3175000D01*
X7495900Y3175000D02*
X8130900Y3810000D01*
X8130900Y3810000D02*
X10490200Y3810000D01*
X10490200Y3810000D02*
X11430000Y3810000D01*
X0Y2540000D02*
X8501101Y2540000D01*
X8501101Y2540000D02*
X9136101Y3175000D01*
X9136101Y3175000D02*
X11430000Y3175000D01*
X0Y1905000D02*
X9506302Y1905000D01*
X10141302Y2540000D02*
X10490200Y2540000D01*
X9506302Y1905000D02*
X10141302Y2540000D01*
X10490200Y2540000D02*
X11430000Y2540000D01*
M02*
