G04 #@! TF.FileFunction,Copper,L1,Top,Signal*
%FSLAX46Y46*%
G04 Gerber Fmt 4.6, Leading zero omitted, Abs format (unit mm)*
G04 Created by KiCad (PCBNEW 4.0.7-e2-6376~58~ubuntu16.04.1) date Sun Nov  4 22:14:27 2018*
%MOMM*%
%LPD*%
G01*
G04 APERTURE LIST*
%ADD10C,0.100000*%
%ADD11R,0.900000X1.200000*%
%ADD12R,0.600000X0.450000*%
%ADD13R,0.700000X1.300000*%
%ADD14R,3.810000X10.160000*%
%ADD15C,0.609600*%
%ADD16C,0.304800*%
%ADD17C,1.270000*%
%ADD18C,0.508000*%
G04 APERTURE END LIST*
D10*
D11*
X7365000Y3175000D03*
X4065000Y3175000D03*
D12*
X6765000Y635000D03*
X4665000Y635000D03*
D13*
X4765000Y5715000D03*
X6665000Y5715000D03*
D14*
X8255000Y13335000D03*
X3175000Y13335000D03*
D15*
X3810000Y6324494D03*
X2540000Y0D03*
X3810000Y0D03*
X6731000Y7620000D03*
D16*
X8255000Y13335000D02*
X8255000Y3310200D01*
X8255000Y3310200D02*
X8119800Y3175000D01*
X8119800Y3175000D02*
X7365000Y3175000D01*
X7365000Y3175000D02*
X7365000Y1235000D01*
X7620000Y3175000D02*
X7365000Y3175000D01*
X7365000Y1235000D02*
X6765000Y635000D01*
X4110200Y5715000D02*
X3810000Y6015200D01*
X4765000Y5715000D02*
X4110200Y5715000D01*
X3810000Y6015200D02*
X3810000Y6324494D01*
X4430200Y4445000D02*
X4449800Y4445000D01*
X4449800Y4445000D02*
X4765000Y4760200D01*
X4765000Y4760200D02*
X4765000Y5715000D01*
X4065000Y3175000D02*
X4065000Y4079800D01*
X4065000Y4079800D02*
X4430200Y4445000D01*
D17*
X3175000Y13335000D02*
X3175000Y10160000D01*
X3175000Y10160000D02*
X2540000Y9525000D01*
D18*
X2540000Y9525000D02*
X2540000Y0D01*
D16*
X4665000Y635000D02*
X4445000Y635000D01*
X4445000Y635000D02*
X3810000Y0D01*
X6665000Y5715000D02*
X6665000Y7554000D01*
X6665000Y7554000D02*
X6731000Y7620000D01*
X6665000Y5715000D02*
X6665000Y6015000D01*
M02*
