G04 #@! TF.FileFunction,Copper,L1,Top,Signal*
%FSLAX46Y46*%
G04 Gerber Fmt 4.6, Leading zero omitted, Abs format (unit mm)*
G04 Created by KiCad (PCBNEW 4.0.6-e0-6349~53~ubuntu16.04.1) date Sun Jul 30 23:13:34 2017*
%MOMM*%
%LPD*%
G01*
G04 APERTURE LIST*
%ADD10C,0.100000*%
%ADD11R,1.300000X0.700000*%
%ADD12R,1.200000X1.200000*%
%ADD13R,3.800000X2.000000*%
%ADD14R,1.500000X2.000000*%
%ADD15C,3.000000*%
%ADD16C,0.762000*%
%ADD17C,0.508000*%
%ADD18C,0.254000*%
%ADD19C,1.524000*%
%ADD20C,2.540000*%
G04 APERTURE END LIST*
D10*
D11*
X3175000Y4765000D03*
X3175000Y6665000D03*
X1270000Y4765000D03*
X1270000Y6665000D03*
D12*
X2540000Y1735000D03*
X2540000Y-465000D03*
D13*
X7620000Y6325000D03*
D14*
X7620000Y25000D03*
X9920000Y25000D03*
X5320000Y25000D03*
D15*
X3175000Y16200000D03*
X8175000Y16200000D03*
X8175000Y9200000D03*
X3175000Y9200000D03*
D16*
X9525000Y1498590D03*
D17*
X1270000Y0D03*
X2159000Y6350000D03*
D18*
X1270000Y4765000D02*
X1270000Y2151000D01*
X1270000Y2151000D02*
X1686000Y1735000D01*
X1686000Y1735000D02*
X2540000Y1735000D01*
D19*
X9920000Y25000D02*
X9920000Y1103590D01*
X9920000Y1103590D02*
X9525000Y1498590D01*
D18*
X2540000Y-465000D02*
X1735000Y-465000D01*
X1735000Y-465000D02*
X1270000Y0D01*
D20*
X3175000Y9200000D02*
X8175000Y9200000D01*
D19*
X7620000Y6325000D02*
X7620000Y25000D01*
D20*
X8175000Y16200000D02*
X8175000Y9200000D01*
X3175000Y9200000D02*
X3175000Y16200000D01*
X7620000Y6325000D02*
X7620000Y8645000D01*
X7620000Y8645000D02*
X8175000Y9200000D01*
D18*
X3175000Y4765000D02*
X3175000Y4161000D01*
X3175000Y4161000D02*
X5320000Y2016000D01*
X5320000Y2016000D02*
X5320000Y1279000D01*
X5320000Y1279000D02*
X5320000Y25000D01*
X1905001Y6603999D02*
X2159000Y6350000D01*
X1270000Y6665000D02*
X1844000Y6665000D01*
X2159000Y6553000D02*
X2159000Y6350000D01*
X2271000Y6665000D02*
X2159000Y6553000D01*
X3175000Y6665000D02*
X2271000Y6665000D01*
X1844000Y6665000D02*
X1905001Y6603999D01*
G36*
X1547706Y17647686D02*
X1661028Y17534364D01*
X1342261Y17374582D01*
X1032277Y16583813D01*
X1048503Y15734613D01*
X1342261Y15025418D01*
X1661030Y14865635D01*
X2995395Y16200000D01*
X2981253Y16214142D01*
X3160858Y16393747D01*
X3175000Y16379605D01*
X3189143Y16393747D01*
X3368748Y16214142D01*
X3354605Y16200000D01*
X4688970Y14865635D01*
X5007739Y15025418D01*
X5317723Y15816187D01*
X5301497Y16665387D01*
X5007739Y17374582D01*
X4688972Y17534364D01*
X4802294Y17647686D01*
X4744980Y17705000D01*
X6605020Y17705000D01*
X6547706Y17647686D01*
X6661028Y17534364D01*
X6342261Y17374582D01*
X6032277Y16583813D01*
X6048503Y15734613D01*
X6342261Y15025418D01*
X6661030Y14865635D01*
X7995395Y16200000D01*
X7981253Y16214142D01*
X8160858Y16393747D01*
X8175000Y16379605D01*
X8189143Y16393747D01*
X8368748Y16214142D01*
X8354605Y16200000D01*
X9688970Y14865635D01*
X10007739Y15025418D01*
X10317723Y15816187D01*
X10301497Y16665387D01*
X10007739Y17374582D01*
X9688972Y17534364D01*
X9802294Y17647686D01*
X9744980Y17705000D01*
X10720000Y17705000D01*
X10720000Y2279246D01*
X10512828Y2486418D01*
X10059609Y2789250D01*
X9525000Y2895590D01*
X8990391Y2789250D01*
X8537172Y2486418D01*
X8234340Y2033199D01*
X8160106Y1660000D01*
X7905750Y1660000D01*
X7747000Y1501250D01*
X7747000Y152000D01*
X7767000Y152000D01*
X7767000Y-102000D01*
X7747000Y-102000D01*
X7747000Y-122000D01*
X7493000Y-122000D01*
X7493000Y-102000D01*
X7473000Y-102000D01*
X7473000Y152000D01*
X7493000Y152000D01*
X7493000Y1501250D01*
X7334250Y1660000D01*
X6743690Y1660000D01*
X6510301Y1563327D01*
X6468340Y1521366D01*
X6321890Y1621431D01*
X6082000Y1670010D01*
X6082000Y2016000D01*
X6023996Y2307605D01*
X5858815Y2554815D01*
X4352055Y4061575D01*
X4421431Y4163110D01*
X4472440Y4415000D01*
X4472440Y5115000D01*
X4428162Y5350317D01*
X4289090Y5566441D01*
X4076890Y5711431D01*
X4063803Y5714081D01*
X4276441Y5850910D01*
X4405128Y6039250D01*
X5085000Y6039250D01*
X5085000Y5198691D01*
X5181673Y4965302D01*
X5360301Y4786673D01*
X5593690Y4690000D01*
X7334250Y4690000D01*
X7493000Y4848750D01*
X7493000Y6198000D01*
X7747000Y6198000D01*
X7747000Y4848750D01*
X7905750Y4690000D01*
X9646310Y4690000D01*
X9879699Y4786673D01*
X10058327Y4965302D01*
X10155000Y5198691D01*
X10155000Y6039250D01*
X9996250Y6198000D01*
X7747000Y6198000D01*
X7493000Y6198000D01*
X5243750Y6198000D01*
X5085000Y6039250D01*
X4405128Y6039250D01*
X4421431Y6063110D01*
X4472440Y6315000D01*
X4472440Y7015000D01*
X4428162Y7250317D01*
X4351040Y7370169D01*
X4391711Y7451309D01*
X5085000Y7451309D01*
X5085000Y6610750D01*
X5243750Y6452000D01*
X7493000Y6452000D01*
X7493000Y6472000D01*
X7747000Y6472000D01*
X7747000Y6452000D01*
X9996250Y6452000D01*
X10155000Y6610750D01*
X10155000Y7451309D01*
X10058327Y7684698D01*
X9879699Y7863327D01*
X9772747Y7907628D01*
X10007739Y8025418D01*
X10317723Y8816187D01*
X10301497Y9665387D01*
X10007739Y10374582D01*
X9688970Y10534365D01*
X8354605Y9200000D01*
X8368748Y9185857D01*
X8189143Y9006252D01*
X8175000Y9020395D01*
X8160858Y9006252D01*
X7981253Y9185857D01*
X7995395Y9200000D01*
X6661030Y10534365D01*
X6342261Y10374582D01*
X6032277Y9583813D01*
X6048503Y8734613D01*
X6342261Y8025418D01*
X6472771Y7960000D01*
X5593690Y7960000D01*
X5360301Y7863327D01*
X5181673Y7684698D01*
X5085000Y7451309D01*
X4391711Y7451309D01*
X4509365Y7686030D01*
X3175000Y9020395D01*
X1840635Y7686030D01*
X1852459Y7662440D01*
X710000Y7662440D01*
X710000Y9583813D01*
X1032277Y9583813D01*
X1048503Y8734613D01*
X1342261Y8025418D01*
X1661030Y7865635D01*
X2995395Y9200000D01*
X3354605Y9200000D01*
X4688970Y7865635D01*
X5007739Y8025418D01*
X5317723Y8816187D01*
X5301497Y9665387D01*
X5007739Y10374582D01*
X4688970Y10534365D01*
X3354605Y9200000D01*
X2995395Y9200000D01*
X1661030Y10534365D01*
X1342261Y10374582D01*
X1032277Y9583813D01*
X710000Y9583813D01*
X710000Y10713970D01*
X1840635Y10713970D01*
X3175000Y9379605D01*
X4509365Y10713970D01*
X6840635Y10713970D01*
X8175000Y9379605D01*
X9509365Y10713970D01*
X9349582Y11032739D01*
X8558813Y11342723D01*
X7709613Y11326497D01*
X7000418Y11032739D01*
X6840635Y10713970D01*
X4509365Y10713970D01*
X4349582Y11032739D01*
X3558813Y11342723D01*
X2709613Y11326497D01*
X2000418Y11032739D01*
X1840635Y10713970D01*
X710000Y10713970D01*
X710000Y14686030D01*
X1840635Y14686030D01*
X2000418Y14367261D01*
X2791187Y14057277D01*
X3640387Y14073503D01*
X4349582Y14367261D01*
X4509365Y14686030D01*
X6840635Y14686030D01*
X7000418Y14367261D01*
X7791187Y14057277D01*
X8640387Y14073503D01*
X9349582Y14367261D01*
X9509365Y14686030D01*
X8175000Y16020395D01*
X6840635Y14686030D01*
X4509365Y14686030D01*
X3175000Y16020395D01*
X1840635Y14686030D01*
X710000Y14686030D01*
X710000Y17705000D01*
X1605020Y17705000D01*
X1547706Y17647686D01*
X1547706Y17647686D01*
G37*
X1547706Y17647686D02*
X1661028Y17534364D01*
X1342261Y17374582D01*
X1032277Y16583813D01*
X1048503Y15734613D01*
X1342261Y15025418D01*
X1661030Y14865635D01*
X2995395Y16200000D01*
X2981253Y16214142D01*
X3160858Y16393747D01*
X3175000Y16379605D01*
X3189143Y16393747D01*
X3368748Y16214142D01*
X3354605Y16200000D01*
X4688970Y14865635D01*
X5007739Y15025418D01*
X5317723Y15816187D01*
X5301497Y16665387D01*
X5007739Y17374582D01*
X4688972Y17534364D01*
X4802294Y17647686D01*
X4744980Y17705000D01*
X6605020Y17705000D01*
X6547706Y17647686D01*
X6661028Y17534364D01*
X6342261Y17374582D01*
X6032277Y16583813D01*
X6048503Y15734613D01*
X6342261Y15025418D01*
X6661030Y14865635D01*
X7995395Y16200000D01*
X7981253Y16214142D01*
X8160858Y16393747D01*
X8175000Y16379605D01*
X8189143Y16393747D01*
X8368748Y16214142D01*
X8354605Y16200000D01*
X9688970Y14865635D01*
X10007739Y15025418D01*
X10317723Y15816187D01*
X10301497Y16665387D01*
X10007739Y17374582D01*
X9688972Y17534364D01*
X9802294Y17647686D01*
X9744980Y17705000D01*
X10720000Y17705000D01*
X10720000Y2279246D01*
X10512828Y2486418D01*
X10059609Y2789250D01*
X9525000Y2895590D01*
X8990391Y2789250D01*
X8537172Y2486418D01*
X8234340Y2033199D01*
X8160106Y1660000D01*
X7905750Y1660000D01*
X7747000Y1501250D01*
X7747000Y152000D01*
X7767000Y152000D01*
X7767000Y-102000D01*
X7747000Y-102000D01*
X7747000Y-122000D01*
X7493000Y-122000D01*
X7493000Y-102000D01*
X7473000Y-102000D01*
X7473000Y152000D01*
X7493000Y152000D01*
X7493000Y1501250D01*
X7334250Y1660000D01*
X6743690Y1660000D01*
X6510301Y1563327D01*
X6468340Y1521366D01*
X6321890Y1621431D01*
X6082000Y1670010D01*
X6082000Y2016000D01*
X6023996Y2307605D01*
X5858815Y2554815D01*
X4352055Y4061575D01*
X4421431Y4163110D01*
X4472440Y4415000D01*
X4472440Y5115000D01*
X4428162Y5350317D01*
X4289090Y5566441D01*
X4076890Y5711431D01*
X4063803Y5714081D01*
X4276441Y5850910D01*
X4405128Y6039250D01*
X5085000Y6039250D01*
X5085000Y5198691D01*
X5181673Y4965302D01*
X5360301Y4786673D01*
X5593690Y4690000D01*
X7334250Y4690000D01*
X7493000Y4848750D01*
X7493000Y6198000D01*
X7747000Y6198000D01*
X7747000Y4848750D01*
X7905750Y4690000D01*
X9646310Y4690000D01*
X9879699Y4786673D01*
X10058327Y4965302D01*
X10155000Y5198691D01*
X10155000Y6039250D01*
X9996250Y6198000D01*
X7747000Y6198000D01*
X7493000Y6198000D01*
X5243750Y6198000D01*
X5085000Y6039250D01*
X4405128Y6039250D01*
X4421431Y6063110D01*
X4472440Y6315000D01*
X4472440Y7015000D01*
X4428162Y7250317D01*
X4351040Y7370169D01*
X4391711Y7451309D01*
X5085000Y7451309D01*
X5085000Y6610750D01*
X5243750Y6452000D01*
X7493000Y6452000D01*
X7493000Y6472000D01*
X7747000Y6472000D01*
X7747000Y6452000D01*
X9996250Y6452000D01*
X10155000Y6610750D01*
X10155000Y7451309D01*
X10058327Y7684698D01*
X9879699Y7863327D01*
X9772747Y7907628D01*
X10007739Y8025418D01*
X10317723Y8816187D01*
X10301497Y9665387D01*
X10007739Y10374582D01*
X9688970Y10534365D01*
X8354605Y9200000D01*
X8368748Y9185857D01*
X8189143Y9006252D01*
X8175000Y9020395D01*
X8160858Y9006252D01*
X7981253Y9185857D01*
X7995395Y9200000D01*
X6661030Y10534365D01*
X6342261Y10374582D01*
X6032277Y9583813D01*
X6048503Y8734613D01*
X6342261Y8025418D01*
X6472771Y7960000D01*
X5593690Y7960000D01*
X5360301Y7863327D01*
X5181673Y7684698D01*
X5085000Y7451309D01*
X4391711Y7451309D01*
X4509365Y7686030D01*
X3175000Y9020395D01*
X1840635Y7686030D01*
X1852459Y7662440D01*
X710000Y7662440D01*
X710000Y9583813D01*
X1032277Y9583813D01*
X1048503Y8734613D01*
X1342261Y8025418D01*
X1661030Y7865635D01*
X2995395Y9200000D01*
X3354605Y9200000D01*
X4688970Y7865635D01*
X5007739Y8025418D01*
X5317723Y8816187D01*
X5301497Y9665387D01*
X5007739Y10374582D01*
X4688970Y10534365D01*
X3354605Y9200000D01*
X2995395Y9200000D01*
X1661030Y10534365D01*
X1342261Y10374582D01*
X1032277Y9583813D01*
X710000Y9583813D01*
X710000Y10713970D01*
X1840635Y10713970D01*
X3175000Y9379605D01*
X4509365Y10713970D01*
X6840635Y10713970D01*
X8175000Y9379605D01*
X9509365Y10713970D01*
X9349582Y11032739D01*
X8558813Y11342723D01*
X7709613Y11326497D01*
X7000418Y11032739D01*
X6840635Y10713970D01*
X4509365Y10713970D01*
X4349582Y11032739D01*
X3558813Y11342723D01*
X2709613Y11326497D01*
X2000418Y11032739D01*
X1840635Y10713970D01*
X710000Y10713970D01*
X710000Y14686030D01*
X1840635Y14686030D01*
X2000418Y14367261D01*
X2791187Y14057277D01*
X3640387Y14073503D01*
X4349582Y14367261D01*
X4509365Y14686030D01*
X6840635Y14686030D01*
X7000418Y14367261D01*
X7791187Y14057277D01*
X8640387Y14073503D01*
X9349582Y14367261D01*
X9509365Y14686030D01*
X8175000Y16020395D01*
X6840635Y14686030D01*
X4509365Y14686030D01*
X3175000Y16020395D01*
X1840635Y14686030D01*
X710000Y14686030D01*
X710000Y17705000D01*
X1605020Y17705000D01*
X1547706Y17647686D01*
M02*
