G04 #@! TF.FileFunction,Copper,L2,Bot,Signal*
%FSLAX46Y46*%
G04 Gerber Fmt 4.6, Leading zero omitted, Abs format (unit mm)*
G04 Created by KiCad (PCBNEW 4.0.6-e0-6349~53~ubuntu16.04.1) date Sun Jul 30 23:13:34 2017*
%MOMM*%
%LPD*%
G01*
G04 APERTURE LIST*
%ADD10C,0.100000*%
%ADD11C,3.000000*%
%ADD12R,1.270000X2.540000*%
%ADD13R,1.270000X0.635000*%
%ADD14R,1.270000X0.304800*%
%ADD15C,0.762000*%
%ADD16C,0.508000*%
%ADD17C,0.254000*%
%ADD18C,1.524000*%
%ADD19C,2.540000*%
%ADD20C,0.508000*%
%ADD21C,0.635000*%
G04 APERTURE END LIST*
D10*
D11*
X3175000Y16200000D03*
X8175000Y16200000D03*
X8175000Y9200000D03*
X3175000Y9200000D03*
D12*
X0Y13335000D03*
X0Y0D03*
D13*
X0Y11430000D03*
D14*
X0Y6350000D03*
X0Y5715000D03*
X0Y5080000D03*
X0Y4445000D03*
X0Y3810000D03*
X0Y3175000D03*
X0Y2540000D03*
X0Y1905000D03*
D13*
X0Y7620000D03*
D12*
X11430000Y13335000D03*
X11430000Y0D03*
D13*
X11430000Y11430000D03*
D14*
X11430000Y6350000D03*
X11430000Y5715000D03*
X11430000Y5080000D03*
X11430000Y4445000D03*
X11430000Y3810000D03*
X11430000Y3175000D03*
X11430000Y2540000D03*
X11430000Y1905000D03*
D13*
X11430000Y7620000D03*
D15*
X9525000Y1498590D03*
D16*
X1270000Y0D03*
X2159000Y6350000D03*
D17*
X0Y5715000D02*
X3175000Y5715000D01*
X3175000Y5715000D02*
X3810000Y6350000D01*
X3810000Y6350000D02*
X10541000Y6350000D01*
X10541000Y6350000D02*
X11430000Y6350000D01*
X11430000Y5715000D02*
X4445000Y5715000D01*
X4445000Y5715000D02*
X3810000Y5080000D01*
X3810000Y5080000D02*
X0Y5080000D01*
X0Y4445000D02*
X4445000Y4445000D01*
X4445000Y4445000D02*
X5080000Y5080000D01*
X5080000Y5080000D02*
X11430000Y5080000D01*
X11430000Y4445000D02*
X5715000Y4445000D01*
X5715000Y4445000D02*
X5080000Y3810000D01*
X5080000Y3810000D02*
X0Y3810000D01*
X0Y3175000D02*
X5715000Y3175000D01*
X6350000Y3810000D02*
X11430000Y3810000D01*
X5715000Y3175000D02*
X6350000Y3810000D01*
X11430000Y3175000D02*
X6985000Y3175000D01*
X6985000Y3175000D02*
X6350000Y2540000D01*
X6350000Y2540000D02*
X0Y2540000D01*
D18*
X11430000Y0D02*
X11023590Y0D01*
X11023590Y0D02*
X9525000Y1498590D01*
D19*
X11430000Y0D02*
X1270000Y0D01*
X1270000Y0D02*
X0Y0D01*
D17*
X0Y6350000D02*
X2159000Y6350000D01*
X0Y6350000D02*
X635000Y6350000D01*
D19*
X11430000Y13335000D02*
X11372599Y13277599D01*
X11372599Y13277599D02*
X57401Y13277599D01*
X57401Y13277599D02*
X0Y13335000D01*
D20*
X0Y11430000D02*
X11430000Y11430000D01*
D21*
X0Y7620000D02*
X1839546Y7620000D01*
X1839546Y7620000D02*
X2229447Y7230099D01*
X2229447Y7230099D02*
X9770099Y7230099D01*
X9770099Y7230099D02*
X10160000Y7620000D01*
X10160000Y7620000D02*
X11430000Y7620000D01*
D17*
X0Y1905000D02*
X6985000Y1905000D01*
X6985000Y1905000D02*
X7620000Y2540000D01*
X7620000Y2540000D02*
X10256520Y2540000D01*
X10256520Y2540000D02*
X11430000Y2540000D01*
M02*
