G04 #@! TF.FileFunction,Legend,Bot*
%FSLAX46Y46*%
G04 Gerber Fmt 4.6, Leading zero omitted, Abs format (unit mm)*
G04 Created by KiCad (PCBNEW 4.0.7-e2-6376~58~ubuntu16.04.1) date Sun Nov  4 22:15:49 2018*
%MOMM*%
%LPD*%
G01*
G04 APERTURE LIST*
%ADD10C,0.100000*%
%ADD11C,0.300000*%
G04 APERTURE END LIST*
D10*
D11*
X12572857Y16625000D02*
X12715714Y16696429D01*
X12930000Y16696429D01*
X13144285Y16625000D01*
X13287143Y16482143D01*
X13358571Y16339286D01*
X13430000Y16053571D01*
X13430000Y15839286D01*
X13358571Y15553571D01*
X13287143Y15410714D01*
X13144285Y15267857D01*
X12930000Y15196429D01*
X12787143Y15196429D01*
X12572857Y15267857D01*
X12501428Y15339286D01*
X12501428Y15839286D01*
X12787143Y15839286D01*
X11858571Y15196429D02*
X11858571Y16696429D01*
X11001428Y15196429D01*
X11001428Y16696429D01*
X10287142Y15196429D02*
X10287142Y16696429D01*
X9929999Y16696429D01*
X9715714Y16625000D01*
X9572856Y16482143D01*
X9501428Y16339286D01*
X9429999Y16053571D01*
X9429999Y15839286D01*
X9501428Y15553571D01*
X9572856Y15410714D01*
X9715714Y15267857D01*
X9929999Y15196429D01*
X10287142Y15196429D01*
X19728571Y15196429D02*
X20442857Y15196429D01*
X20442857Y16696429D01*
X19228571Y15196429D02*
X19228571Y16696429D01*
X18514285Y15196429D02*
X18514285Y16696429D01*
X17657142Y15196429D01*
X17657142Y16696429D01*
X4738571Y15196429D02*
X5595714Y15196429D01*
X5167142Y15196429D02*
X5167142Y16696429D01*
X5309999Y16482143D01*
X5452857Y16339286D01*
X5595714Y16267857D01*
X4167143Y16553571D02*
X4095714Y16625000D01*
X3952857Y16696429D01*
X3595714Y16696429D01*
X3452857Y16625000D01*
X3381428Y16553571D01*
X3310000Y16410714D01*
X3310000Y16267857D01*
X3381428Y16053571D01*
X4238571Y15196429D01*
X3310000Y15196429D01*
X2881429Y16696429D02*
X2381429Y15196429D01*
X1881429Y16696429D01*
M02*
