G04 #@! TF.FileFunction,Legend,Top*
%FSLAX46Y46*%
G04 Gerber Fmt 4.6, Leading zero omitted, Abs format (unit mm)*
G04 Created by KiCad (PCBNEW 4.0.6-e0-6349~53~ubuntu16.04.1) date Thu Aug  3 21:42:43 2017*
%MOMM*%
%LPD*%
G01*
G04 APERTURE LIST*
%ADD10C,0.100000*%
%ADD11C,0.120000*%
%ADD12C,0.150000*%
G04 APERTURE END LIST*
D10*
D11*
X3570151Y5222259D02*
X3570151Y3222259D01*
X6530151Y3222259D02*
X6530151Y5222259D01*
X11565000Y9310000D02*
X12565000Y9310000D01*
X12565000Y11010000D02*
X11565000Y11010000D01*
X5740000Y11010000D02*
X5740000Y9310000D01*
X5740000Y9310000D02*
X8890000Y9310000D01*
X5740000Y11010000D02*
X8890000Y11010000D01*
X905000Y2195000D02*
X2905000Y2195000D01*
X2905000Y2195000D02*
X2905000Y6095000D01*
X905000Y2195000D02*
X905000Y6095000D01*
X3750000Y17950000D02*
X16570000Y17950000D01*
X16570000Y17950000D02*
X16570000Y20610000D01*
X16570000Y20610000D02*
X3750000Y20610000D01*
X3750000Y20610000D02*
X3750000Y17950000D01*
X4700000Y20610000D02*
X4700000Y26610000D01*
X4700000Y26610000D02*
X5460000Y26610000D01*
X5460000Y26610000D02*
X5460000Y20610000D01*
X4760000Y20610000D02*
X4760000Y26610000D01*
X4880000Y20610000D02*
X4880000Y26610000D01*
X5000000Y20610000D02*
X5000000Y26610000D01*
X5120000Y20610000D02*
X5120000Y26610000D01*
X5240000Y20610000D02*
X5240000Y26610000D01*
X5360000Y20610000D02*
X5360000Y26610000D01*
X4700000Y17620000D02*
X4700000Y17950000D01*
X5460000Y17620000D02*
X5460000Y17950000D01*
X6350000Y17950000D02*
X6350000Y20610000D01*
X7240000Y20610000D02*
X7240000Y26610000D01*
X7240000Y26610000D02*
X8000000Y26610000D01*
X8000000Y26610000D02*
X8000000Y20610000D01*
X7240000Y17552929D02*
X7240000Y17950000D01*
X8000000Y17552929D02*
X8000000Y17950000D01*
X8890000Y17950000D02*
X8890000Y20610000D01*
X9780000Y20610000D02*
X9780000Y26610000D01*
X9780000Y26610000D02*
X10540000Y26610000D01*
X10540000Y26610000D02*
X10540000Y20610000D01*
X9780000Y17552929D02*
X9780000Y17950000D01*
X10540000Y17552929D02*
X10540000Y17950000D01*
X11430000Y17950000D02*
X11430000Y20610000D01*
X12320000Y20610000D02*
X12320000Y26610000D01*
X12320000Y26610000D02*
X13080000Y26610000D01*
X13080000Y26610000D02*
X13080000Y20610000D01*
X12320000Y17552929D02*
X12320000Y17950000D01*
X13080000Y17552929D02*
X13080000Y17950000D01*
X13970000Y17950000D02*
X13970000Y20610000D01*
X14860000Y20610000D02*
X14860000Y26610000D01*
X14860000Y26610000D02*
X15620000Y26610000D01*
X15620000Y26610000D02*
X15620000Y20610000D01*
X14860000Y17552929D02*
X14860000Y17950000D01*
X15620000Y17552929D02*
X15620000Y17950000D01*
X5080000Y15240000D02*
X3810000Y15240000D01*
X3810000Y15240000D02*
X3810000Y16510000D01*
D12*
X14459151Y6939000D02*
X14109151Y6939000D01*
X14459151Y1189000D02*
X14009151Y1189000D01*
X6809151Y1189000D02*
X7259151Y1189000D01*
X6809151Y6939000D02*
X7259151Y6939000D01*
X14459151Y6939000D02*
X14459151Y1189000D01*
X6809151Y6939000D02*
X6809151Y1189000D01*
X14109151Y6939000D02*
X14109151Y8539000D01*
X5437143Y-166666D02*
X5484762Y-214285D01*
X5532381Y-357142D01*
X5532381Y-452380D01*
X5484762Y-595238D01*
X5389524Y-690476D01*
X5294286Y-738095D01*
X5103810Y-785714D01*
X4960952Y-785714D01*
X4770476Y-738095D01*
X4675238Y-690476D01*
X4580000Y-595238D01*
X4532381Y-452380D01*
X4532381Y-357142D01*
X4580000Y-214285D01*
X4627619Y-166666D01*
X5532381Y785715D02*
X5532381Y214286D01*
X5532381Y500000D02*
X4532381Y500000D01*
X4675238Y404762D01*
X4770476Y309524D01*
X4818095Y214286D01*
X11898334Y11707857D02*
X11850715Y11660238D01*
X11707858Y11612619D01*
X11612620Y11612619D01*
X11469762Y11660238D01*
X11374524Y11755476D01*
X11326905Y11850714D01*
X11279286Y12041190D01*
X11279286Y12184048D01*
X11326905Y12374524D01*
X11374524Y12469762D01*
X11469762Y12565000D01*
X11612620Y12612619D01*
X11707858Y12612619D01*
X11850715Y12565000D01*
X11898334Y12517381D01*
X12279286Y12517381D02*
X12326905Y12565000D01*
X12422143Y12612619D01*
X12660239Y12612619D01*
X12755477Y12565000D01*
X12803096Y12517381D01*
X12850715Y12422143D01*
X12850715Y12326905D01*
X12803096Y12184048D01*
X12231667Y11612619D01*
X12850715Y11612619D01*
X6901905Y11557619D02*
X6901905Y12557619D01*
X7140000Y12557619D01*
X7282858Y12510000D01*
X7378096Y12414762D01*
X7425715Y12319524D01*
X7473334Y12129048D01*
X7473334Y11986190D01*
X7425715Y11795714D01*
X7378096Y11700476D01*
X7282858Y11605238D01*
X7140000Y11557619D01*
X6901905Y11557619D01*
X8425715Y11557619D02*
X7854286Y11557619D01*
X8140000Y11557619D02*
X8140000Y12557619D01*
X8044762Y12414762D01*
X7949524Y12319524D01*
X7854286Y12271905D01*
X2357381Y-738095D02*
X1357381Y-738095D01*
X1357381Y-500000D01*
X1405000Y-357142D01*
X1500238Y-261904D01*
X1595476Y-214285D01*
X1785952Y-166666D01*
X1928810Y-166666D01*
X2119286Y-214285D01*
X2214524Y-261904D01*
X2309762Y-357142D01*
X2357381Y-500000D01*
X2357381Y-738095D01*
X1452619Y214286D02*
X1405000Y261905D01*
X1357381Y357143D01*
X1357381Y595239D01*
X1405000Y690477D01*
X1452619Y738096D01*
X1547857Y785715D01*
X1643095Y785715D01*
X1785952Y738096D01*
X2357381Y166667D01*
X2357381Y785715D01*
X3627381Y15771905D02*
X2627381Y15771905D01*
X2627381Y16152858D01*
X2675000Y16248096D01*
X2722619Y16295715D01*
X2817857Y16343334D01*
X2960714Y16343334D01*
X3055952Y16295715D01*
X3103571Y16248096D01*
X3151190Y16152858D01*
X3151190Y15771905D01*
X3627381Y17295715D02*
X3627381Y16724286D01*
X3627381Y17010000D02*
X2627381Y17010000D01*
X2770238Y16914762D01*
X2865476Y16819524D01*
X2913095Y16724286D01*
X14836532Y3302095D02*
X15646056Y3302095D01*
X15741294Y3349714D01*
X15788913Y3397333D01*
X15836532Y3492571D01*
X15836532Y3683048D01*
X15788913Y3778286D01*
X15741294Y3825905D01*
X15646056Y3873524D01*
X14836532Y3873524D01*
X15836532Y4873524D02*
X15836532Y4302095D01*
X15836532Y4587809D02*
X14836532Y4587809D01*
X14979389Y4492571D01*
X15074627Y4397333D01*
X15122246Y4302095D01*
M02*
