G04 #@! TF.FileFunction,Copper,L1,Top,Signal*
%FSLAX46Y46*%
G04 Gerber Fmt 4.6, Leading zero omitted, Abs format (unit mm)*
G04 Created by KiCad (PCBNEW 4.0.6-e0-6349~53~ubuntu16.04.1) date Sun Jul 30 23:11:08 2017*
%MOMM*%
%LPD*%
G01*
G04 APERTURE LIST*
%ADD10C,0.100000*%
%ADD11R,2.500000X2.000000*%
%ADD12R,1.500000X1.250000*%
%ADD13R,1.000000X1.000000*%
%ADD14R,1.200000X0.900000*%
%ADD15R,1.700000X1.700000*%
%ADD16O,1.700000X1.700000*%
%ADD17R,0.450000X1.750000*%
%ADD18C,0.635000*%
%ADD19C,0.304800*%
%ADD20C,0.635000*%
G04 APERTURE END LIST*
D10*
D11*
X5050151Y2222259D03*
X5050151Y6222259D03*
D12*
X13315000Y10160000D03*
X10815000Y10160000D03*
D13*
X6390000Y10160000D03*
X8890000Y10160000D03*
D14*
X1905000Y2795000D03*
X1905000Y6095000D03*
D15*
X5080000Y16510000D03*
D16*
X7620000Y16510000D03*
X10160000Y16510000D03*
X12700000Y16510000D03*
X15240000Y16510000D03*
D17*
X13559151Y7664000D03*
X12909151Y7664000D03*
X12259151Y7664000D03*
X11609151Y7664000D03*
X10959151Y7664000D03*
X10309151Y7664000D03*
X9659151Y7664000D03*
X9009151Y7664000D03*
X8359151Y7664000D03*
X7709151Y7664000D03*
X7709151Y464000D03*
X8359151Y464000D03*
X9009151Y464000D03*
X9659151Y464000D03*
X10309151Y464000D03*
X10959151Y464000D03*
X11609151Y464000D03*
X12259151Y464000D03*
X12909151Y464000D03*
X13559151Y464000D03*
D18*
X14605000Y14D03*
X6985000Y6222259D03*
X6985000Y7620000D03*
X14605000Y7620000D03*
X6350000Y11430000D03*
X1905000Y13335000D03*
X12954000Y1905000D03*
X12192000Y2540000D03*
X11049000Y6350000D03*
X10414002Y5715000D03*
X9652000Y5207000D03*
X9654482Y4419592D03*
X10287000Y3810000D03*
X11176000Y3174996D03*
D19*
X1905000Y2795000D02*
X4477410Y2795000D01*
X4477410Y2795000D02*
X5050151Y2222259D01*
X4785115Y1957223D02*
X5050151Y2222259D01*
X7709151Y666259D02*
X7709151Y1316259D01*
X7709151Y1316259D02*
X6803151Y2222259D01*
X6803151Y2222259D02*
X6604951Y2222259D01*
X6604951Y2222259D02*
X5050151Y2222259D01*
X10160000Y16510000D02*
X10160000Y15307919D01*
X10160000Y15307919D02*
X15240000Y10227919D01*
X15240000Y3175000D02*
X13559151Y1494151D01*
X15240000Y10227919D02*
X15240000Y3175000D01*
X13559151Y1494151D02*
X13559151Y666259D01*
X13559151Y666259D02*
X14088951Y666259D01*
X14088951Y666259D02*
X14605000Y150210D01*
X14605000Y150210D02*
X14605000Y14D01*
X5050151Y6222259D02*
X6985000Y6222259D01*
X6985000Y6222259D02*
X8544951Y6222259D01*
X9009151Y7866259D02*
X9009151Y10040849D01*
X9009151Y10040849D02*
X8890000Y10160000D01*
X10815000Y10160000D02*
X8890000Y10160000D01*
X8544951Y6222259D02*
X9009151Y6686459D01*
X9009151Y6686459D02*
X9009151Y7866259D01*
X7620000Y16510000D02*
X13559151Y10570849D01*
X13559151Y10570849D02*
X13559151Y7866259D01*
D20*
X6985000Y7620000D02*
X7434012Y7620000D01*
X7434012Y7620000D02*
X7664250Y7850238D01*
X7664250Y7850238D02*
X7664250Y7866259D01*
X14605000Y7620000D02*
X13850311Y7620000D01*
X13850311Y7620000D02*
X13604052Y7866259D01*
X6390000Y10160000D02*
X6390000Y11390000D01*
X6390000Y11390000D02*
X6350000Y11430000D01*
D19*
X8359151Y7866259D02*
X8359151Y9046059D01*
X8359151Y9046059D02*
X7245210Y10160000D01*
X7245210Y10160000D02*
X7194800Y10160000D01*
X7194800Y10160000D02*
X6390000Y10160000D01*
X1905000Y6095000D02*
X1905000Y13335000D01*
X11609151Y7866259D02*
X11609151Y9030509D01*
X11609151Y9030509D02*
X11869801Y9291159D01*
X11869801Y9291159D02*
X11869801Y11028841D01*
X11869801Y11028841D02*
X10198642Y12700000D01*
X10198642Y12700000D02*
X8890000Y12700000D01*
X8890000Y12700000D02*
X5080000Y16510000D01*
X5338642Y16510000D02*
X5080000Y16510000D01*
X13017925Y-622315D02*
X12909151Y-513541D01*
X12700000Y16510000D02*
X15875000Y13335000D01*
X15875000Y13335000D02*
X15875000Y348980D01*
X15875000Y348980D02*
X14903705Y-622315D01*
X12909151Y-513541D02*
X12909151Y666259D01*
X14903705Y-622315D02*
X13017925Y-622315D01*
X15240000Y16510000D02*
X16510000Y15240000D01*
X16510000Y0D02*
X15430476Y-1079524D01*
X16510000Y15240000D02*
X16510000Y0D01*
X15430476Y-1079524D02*
X12825134Y-1079524D01*
X12825134Y-1079524D02*
X12259151Y-513541D01*
X12259151Y-513541D02*
X12259151Y666259D01*
X14605000Y16510000D02*
X15240000Y16510000D01*
X12909151Y7664000D02*
X12909151Y1949849D01*
X12909151Y1949849D02*
X12954000Y1905000D01*
X12909151Y7866259D02*
X12954000Y7821410D01*
X12259151Y7664000D02*
X12259151Y2607151D01*
X12259151Y2607151D02*
X12192000Y2540000D01*
X10959151Y7664000D02*
X10959151Y6439849D01*
X10959151Y6439849D02*
X11049000Y6350000D01*
X10959151Y7866259D02*
X11049000Y7776410D01*
X10309151Y7664000D02*
X10309151Y5819851D01*
X10309151Y5819851D02*
X10414002Y5715000D01*
X9652000Y7859108D02*
X9652000Y5656012D01*
X9659151Y7866259D02*
X9652000Y7859108D01*
X9652000Y5656012D02*
X9652000Y5207000D01*
X9009151Y666259D02*
X8359151Y666259D01*
X9654482Y670928D02*
X9654482Y3970580D01*
X9659151Y666259D02*
X9654482Y670928D01*
X9654482Y3970580D02*
X9654482Y4419592D01*
X10287000Y3360988D02*
X10287000Y3810000D01*
X10309151Y666259D02*
X10287000Y688410D01*
X10287000Y688410D02*
X10287000Y3360988D01*
X10959151Y666259D02*
X10959151Y2958151D01*
X10959151Y2958151D02*
X11176000Y3175000D01*
X11176000Y3175000D02*
X11176000Y3174996D01*
M02*
