G04 #@! TF.FileFunction,Legend,Top*
%FSLAX46Y46*%
G04 Gerber Fmt 4.6, Leading zero omitted, Abs format (unit mm)*
G04 Created by KiCad (PCBNEW 4.0.6-e0-6349~53~ubuntu16.04.1) date Mon Sep  4 23:14:24 2017*
%MOMM*%
%LPD*%
G01*
G04 APERTURE LIST*
%ADD10C,0.100000*%
%ADD11C,0.120000*%
%ADD12C,0.150000*%
G04 APERTURE END LIST*
D10*
D11*
X4453000Y10199000D02*
X5453000Y10199000D01*
X5453000Y11899000D02*
X4453000Y11899000D01*
X4453000Y15412000D02*
X5453000Y15412000D01*
X5453000Y14052000D02*
X4453000Y14052000D01*
X4537000Y680000D02*
X5537000Y680000D01*
X5537000Y-680000D02*
X4537000Y-680000D01*
X11684000Y13716000D02*
X11684000Y18288000D01*
X22733000Y16764000D02*
X22733000Y15875000D01*
X22098000Y16764000D02*
X22733000Y16764000D01*
X22098000Y18288000D02*
X22098000Y16764000D01*
X11684000Y4064000D02*
X11684000Y4318000D01*
X22098000Y4064000D02*
X21209000Y4064000D01*
X22098000Y4318000D02*
X22098000Y4064000D01*
X11684000Y4064000D02*
X12573000Y4064000D01*
D12*
X7028000Y1138000D02*
X7028000Y1163000D01*
X2878000Y1138000D02*
X2878000Y1253000D01*
X2878000Y10038000D02*
X2878000Y9923000D01*
X7028000Y10038000D02*
X7028000Y9923000D01*
X7028000Y1138000D02*
X2878000Y1138000D01*
X7028000Y10038000D02*
X2878000Y10038000D01*
X7028000Y1163000D02*
X8403000Y1163000D01*
D11*
X3053000Y13804000D02*
X3053000Y12104000D01*
X3053000Y12104000D02*
X6203000Y12104000D01*
X3053000Y13804000D02*
X6203000Y13804000D01*
D12*
X8215334Y10691857D02*
X8167715Y10644238D01*
X8024858Y10596619D01*
X7929620Y10596619D01*
X7786762Y10644238D01*
X7691524Y10739476D01*
X7643905Y10834714D01*
X7596286Y11025190D01*
X7596286Y11168048D01*
X7643905Y11358524D01*
X7691524Y11453762D01*
X7786762Y11549000D01*
X7929620Y11596619D01*
X8024858Y11596619D01*
X8167715Y11549000D01*
X8215334Y11501381D01*
X9167715Y10596619D02*
X8596286Y10596619D01*
X8882000Y10596619D02*
X8882000Y11596619D01*
X8786762Y11453762D01*
X8691524Y11358524D01*
X8596286Y11310905D01*
X8215334Y14279619D02*
X7882000Y14755810D01*
X7643905Y14279619D02*
X7643905Y15279619D01*
X8024858Y15279619D01*
X8120096Y15232000D01*
X8167715Y15184381D01*
X8215334Y15089143D01*
X8215334Y14946286D01*
X8167715Y14851048D01*
X8120096Y14803429D01*
X8024858Y14755810D01*
X7643905Y14755810D01*
X9167715Y14279619D02*
X8596286Y14279619D01*
X8882000Y14279619D02*
X8882000Y15279619D01*
X8786762Y15136762D01*
X8691524Y15041524D01*
X8596286Y14993905D01*
X8342334Y-452381D02*
X8009000Y23810D01*
X7770905Y-452381D02*
X7770905Y547619D01*
X8151858Y547619D01*
X8247096Y500000D01*
X8294715Y452381D01*
X8342334Y357143D01*
X8342334Y214286D01*
X8294715Y119048D01*
X8247096Y71429D01*
X8151858Y23810D01*
X7770905Y23810D01*
X8723286Y452381D02*
X8770905Y500000D01*
X8866143Y547619D01*
X9104239Y547619D01*
X9199477Y500000D01*
X9247096Y452381D01*
X9294715Y357143D01*
X9294715Y261905D01*
X9247096Y119048D01*
X8675667Y-452381D01*
X9294715Y-452381D01*
X16129095Y10834619D02*
X16129095Y10025095D01*
X16176714Y9929857D01*
X16224333Y9882238D01*
X16319571Y9834619D01*
X16510048Y9834619D01*
X16605286Y9882238D01*
X16652905Y9929857D01*
X16700524Y10025095D01*
X16700524Y10834619D01*
X17700524Y9834619D02*
X17129095Y9834619D01*
X17414809Y9834619D02*
X17414809Y10834619D01*
X17319571Y10691762D01*
X17224333Y10596524D01*
X17129095Y10548905D01*
X4191095Y6135619D02*
X4191095Y5326095D01*
X4238714Y5230857D01*
X4286333Y5183238D01*
X4381571Y5135619D01*
X4572048Y5135619D01*
X4667286Y5183238D01*
X4714905Y5230857D01*
X4762524Y5326095D01*
X4762524Y6135619D01*
X5191095Y6040381D02*
X5238714Y6088000D01*
X5333952Y6135619D01*
X5572048Y6135619D01*
X5667286Y6088000D01*
X5714905Y6040381D01*
X5762524Y5945143D01*
X5762524Y5849905D01*
X5714905Y5707048D01*
X5143476Y5135619D01*
X5762524Y5135619D01*
X7643905Y12501619D02*
X7643905Y13501619D01*
X7882000Y13501619D01*
X8024858Y13454000D01*
X8120096Y13358762D01*
X8167715Y13263524D01*
X8215334Y13073048D01*
X8215334Y12930190D01*
X8167715Y12739714D01*
X8120096Y12644476D01*
X8024858Y12549238D01*
X7882000Y12501619D01*
X7643905Y12501619D01*
X9167715Y12501619D02*
X8596286Y12501619D01*
X8882000Y12501619D02*
X8882000Y13501619D01*
X8786762Y13358762D01*
X8691524Y13263524D01*
X8596286Y13215905D01*
M02*
