G04 #@! TF.FileFunction,Legend,Bot*
%FSLAX46Y46*%
G04 Gerber Fmt 4.6, Leading zero omitted, Abs format (unit mm)*
G04 Created by KiCad (PCBNEW 4.0.6-e0-6349~53~ubuntu16.04.1) date Mon Sep  4 23:14:24 2017*
%MOMM*%
%LPD*%
G01*
G04 APERTURE LIST*
%ADD10C,0.100000*%
%ADD11C,0.300000*%
G04 APERTURE END LIST*
D10*
D11*
X21435143Y7715286D02*
X21506571Y7501000D01*
X21506571Y7143857D01*
X21435143Y7001000D01*
X21363714Y6929571D01*
X21220857Y6858143D01*
X21078000Y6858143D01*
X20935143Y6929571D01*
X20863714Y7001000D01*
X20792286Y7143857D01*
X20720857Y7429571D01*
X20649429Y7572429D01*
X20578000Y7643857D01*
X20435143Y7715286D01*
X20292286Y7715286D01*
X20149429Y7643857D01*
X20078000Y7572429D01*
X20006571Y7429571D01*
X20006571Y7072429D01*
X20078000Y6858143D01*
X20006571Y6358143D02*
X21506571Y6001000D01*
X20435143Y5715286D01*
X21506571Y5429572D01*
X20006571Y5072429D01*
X21506571Y4501000D02*
X20006571Y4501000D01*
X20006571Y4143857D01*
X20078000Y3929572D01*
X20220857Y3786714D01*
X20363714Y3715286D01*
X20649429Y3643857D01*
X20863714Y3643857D01*
X21149429Y3715286D01*
X21292286Y3786714D01*
X21435143Y3929572D01*
X21506571Y4143857D01*
X21506571Y4501000D01*
X21363714Y2143857D02*
X21435143Y2215286D01*
X21506571Y2429572D01*
X21506571Y2572429D01*
X21435143Y2786714D01*
X21292286Y2929572D01*
X21149429Y3001000D01*
X20863714Y3072429D01*
X20649429Y3072429D01*
X20363714Y3001000D01*
X20220857Y2929572D01*
X20078000Y2786714D01*
X20006571Y2572429D01*
X20006571Y2429572D01*
X20078000Y2215286D01*
X20149429Y2143857D01*
X21506571Y786714D02*
X21506571Y1501000D01*
X20006571Y1501000D01*
X21506571Y286714D02*
X20006571Y286714D01*
X21506571Y-570429D02*
X20649429Y72428D01*
X20006571Y-570429D02*
X20863714Y286714D01*
X19149143Y7842286D02*
X19220571Y7628000D01*
X19220571Y7270857D01*
X19149143Y7128000D01*
X19077714Y7056571D01*
X18934857Y6985143D01*
X18792000Y6985143D01*
X18649143Y7056571D01*
X18577714Y7128000D01*
X18506286Y7270857D01*
X18434857Y7556571D01*
X18363429Y7699429D01*
X18292000Y7770857D01*
X18149143Y7842286D01*
X18006286Y7842286D01*
X17863429Y7770857D01*
X17792000Y7699429D01*
X17720571Y7556571D01*
X17720571Y7199429D01*
X17792000Y6985143D01*
X17720571Y6485143D02*
X19220571Y6128000D01*
X18149143Y5842286D01*
X19220571Y5556572D01*
X17720571Y5199429D01*
X19220571Y4628000D02*
X17720571Y4628000D01*
X17720571Y4270857D01*
X17792000Y4056572D01*
X17934857Y3913714D01*
X18077714Y3842286D01*
X18363429Y3770857D01*
X18577714Y3770857D01*
X18863429Y3842286D01*
X19006286Y3913714D01*
X19149143Y4056572D01*
X19220571Y4270857D01*
X19220571Y4628000D01*
X19220571Y3128000D02*
X17720571Y3128000D01*
X17720571Y2128000D02*
X17720571Y1842286D01*
X17792000Y1699428D01*
X17934857Y1556571D01*
X18220571Y1485143D01*
X18720571Y1485143D01*
X19006286Y1556571D01*
X19149143Y1699428D01*
X19220571Y1842286D01*
X19220571Y2128000D01*
X19149143Y2270857D01*
X19006286Y2413714D01*
X18720571Y2485143D01*
X18220571Y2485143D01*
X17934857Y2413714D01*
X17792000Y2270857D01*
X17720571Y2128000D01*
X15180571Y7786714D02*
X15180571Y6858143D01*
X15752000Y7358143D01*
X15752000Y7143857D01*
X15823429Y7001000D01*
X15894857Y6929571D01*
X16037714Y6858143D01*
X16394857Y6858143D01*
X16537714Y6929571D01*
X16609143Y7001000D01*
X16680571Y7143857D01*
X16680571Y7572429D01*
X16609143Y7715286D01*
X16537714Y7786714D01*
X15180571Y6429572D02*
X16680571Y5929572D01*
X15180571Y5429572D01*
X15180571Y5072429D02*
X15180571Y4143858D01*
X15752000Y4643858D01*
X15752000Y4429572D01*
X15823429Y4286715D01*
X15894857Y4215286D01*
X16037714Y4143858D01*
X16394857Y4143858D01*
X16537714Y4215286D01*
X16609143Y4286715D01*
X16680571Y4429572D01*
X16680571Y4858144D01*
X16609143Y5001001D01*
X16537714Y5072429D01*
X12839000Y6858143D02*
X12767571Y7001000D01*
X12767571Y7215286D01*
X12839000Y7429571D01*
X12981857Y7572429D01*
X13124714Y7643857D01*
X13410429Y7715286D01*
X13624714Y7715286D01*
X13910429Y7643857D01*
X14053286Y7572429D01*
X14196143Y7429571D01*
X14267571Y7215286D01*
X14267571Y7072429D01*
X14196143Y6858143D01*
X14124714Y6786714D01*
X13624714Y6786714D01*
X13624714Y7072429D01*
X14267571Y6143857D02*
X12767571Y6143857D01*
X14267571Y5286714D01*
X12767571Y5286714D01*
X14267571Y4572428D02*
X12767571Y4572428D01*
X12767571Y4215285D01*
X12839000Y4001000D01*
X12981857Y3858142D01*
X13124714Y3786714D01*
X13410429Y3715285D01*
X13624714Y3715285D01*
X13910429Y3786714D01*
X14053286Y3858142D01*
X14196143Y4001000D01*
X14267571Y4215285D01*
X14267571Y4572428D01*
M02*
