G04 #@! TF.FileFunction,Copper,L2,Bot,Signal*
%FSLAX46Y46*%
G04 Gerber Fmt 4.6, Leading zero omitted, Abs format (unit mm)*
G04 Created by KiCad (PCBNEW 4.0.6-e0-6349~53~ubuntu16.04.1) date Mon Sep  4 23:14:24 2017*
%MOMM*%
%LPD*%
G01*
G04 APERTURE LIST*
%ADD10C,0.100000*%
%ADD11R,1.270000X2.540000*%
%ADD12R,1.270000X0.635000*%
%ADD13R,1.270000X0.304800*%
%ADD14R,1.500000X1.500000*%
%ADD15C,0.762000*%
%ADD16C,0.508000*%
%ADD17C,2.032000*%
%ADD18C,0.304800*%
G04 APERTURE END LIST*
D10*
D11*
X0Y13335000D03*
X0Y0D03*
D12*
X0Y11430000D03*
D13*
X0Y6350000D03*
X0Y5715000D03*
X0Y5080000D03*
X0Y4445000D03*
X0Y3810000D03*
X0Y3175000D03*
X0Y2540000D03*
X0Y1905000D03*
D12*
X0Y7620000D03*
D11*
X22860000Y13335000D03*
X22860000Y0D03*
D12*
X22860000Y11430000D03*
D13*
X22860000Y6350000D03*
X22860000Y5715000D03*
X22860000Y5080000D03*
X22860000Y4445000D03*
X22860000Y3810000D03*
X22860000Y3175000D03*
X22860000Y2540000D03*
X22860000Y1905000D03*
D12*
X22860000Y7620000D03*
D14*
X20828000Y9398000D03*
X18415000Y9398000D03*
X16002000Y9398000D03*
X13589000Y9398000D03*
D15*
X8551657Y5588000D03*
X13843000Y5588000D03*
X13589000Y8255000D03*
X13208000Y0D03*
X21717000Y0D03*
X1270000Y13335000D03*
X1253838Y11383282D03*
X15391000Y6961000D03*
X16891000Y6223000D03*
X18631700Y5612300D03*
X19665000Y5613700D03*
X19177000Y3505200D03*
X16268200Y3229900D03*
X17641000Y3264700D03*
X14641000Y3216500D03*
X20475827Y10409177D03*
X18413086Y10425167D03*
D16*
X13843000Y5588000D02*
X8551657Y5588000D01*
X16002000Y9398000D02*
X16002000Y8521000D01*
X17646100Y7813500D02*
X16002000Y7813500D01*
X16002000Y7813500D02*
X14957000Y7813500D01*
X16002000Y8521000D02*
X16002000Y7813500D01*
X22860000Y7620000D02*
X21717000Y7620000D01*
X13843000Y6699400D02*
X13843000Y5588000D01*
X14957000Y7813500D02*
X13843000Y6699400D01*
X17702900Y7870300D02*
X17646100Y7813500D01*
X18481000Y7870300D02*
X17702900Y7870300D01*
X18486300Y7875600D02*
X18481000Y7870300D01*
X20790600Y7875600D02*
X18486300Y7875600D01*
X20852700Y7813500D02*
X20790600Y7875600D01*
X21523500Y7813500D02*
X20852700Y7813500D01*
X21717000Y7620000D02*
X21523500Y7813500D01*
X13589000Y9398000D02*
X13589000Y8255000D01*
D17*
X0Y0D02*
X13208000Y0D01*
X22860000Y0D02*
X21717000Y0D01*
D16*
X19875000Y64000D02*
X19875000Y0D01*
D17*
X21717000Y0D02*
X19875000Y0D01*
X19875000Y0D02*
X13208000Y0D01*
X22860000Y13335000D02*
X1270000Y13335000D01*
X1270000Y13335000D02*
X0Y13335000D01*
D16*
X1300556Y11430000D02*
X1253838Y11383282D01*
X1207120Y11430000D02*
X1253838Y11383282D01*
X0Y11430000D02*
X1207120Y11430000D01*
X22860000Y11430000D02*
X1300556Y11430000D01*
D18*
X22860000Y6350000D02*
X21818600Y6350000D01*
X15391000Y6961100D02*
X15391000Y6961000D01*
X18398400Y6961100D02*
X15391000Y6961100D01*
X18728400Y7291100D02*
X18398400Y6961100D01*
X20503600Y7291100D02*
X18728400Y7291100D01*
X21444700Y6350000D02*
X20503600Y7291100D01*
X21818600Y6350000D02*
X21444700Y6350000D01*
X21396800Y5715000D02*
X22860000Y5715000D01*
X20303600Y6808200D02*
X21396800Y5715000D01*
X18940400Y6808200D02*
X20303600Y6808200D01*
X18486200Y6354000D02*
X18940400Y6808200D01*
X17022000Y6354000D02*
X18486200Y6354000D01*
X16891000Y6223000D02*
X17022000Y6354000D01*
X22860000Y5080000D02*
X21818600Y5080000D01*
X19344700Y6325300D02*
X18631700Y5612300D01*
X19974800Y6325300D02*
X19344700Y6325300D01*
X21220100Y5080000D02*
X19974800Y6325300D01*
X21818600Y5080000D02*
X21220100Y5080000D01*
X19687600Y5636300D02*
X19665000Y5613700D01*
X20879000Y4445000D02*
X19687600Y5636300D01*
X22860000Y4445000D02*
X20879000Y4445000D01*
X19482000Y3810000D02*
X19177000Y3505200D01*
X22860000Y3810000D02*
X19482000Y3810000D01*
X20330100Y2540000D02*
X22860000Y2540000D01*
X20028300Y2238200D02*
X20330100Y2540000D01*
X17259900Y2238200D02*
X20028300Y2238200D01*
X16268200Y3229900D02*
X17259900Y2238200D01*
X20040600Y3175000D02*
X22860000Y3175000D01*
X19647000Y2781400D02*
X20040600Y3175000D01*
X18124300Y2781400D02*
X19647000Y2781400D01*
X17641000Y3264700D02*
X18124300Y2781400D01*
X21653200Y1739600D02*
X21818600Y1905000D01*
X16117900Y1739600D02*
X21653200Y1739600D01*
X14641000Y3216500D02*
X16117900Y1739600D01*
X22860000Y1905000D02*
X21818600Y1905000D01*
D16*
X20475827Y9870362D02*
X20475827Y10409177D01*
X20475827Y9750173D02*
X20475827Y9870362D01*
X20828000Y9398000D02*
X20475827Y9750173D01*
X18413086Y9886352D02*
X18413086Y10425167D01*
X18415000Y9398000D02*
X18413086Y9399914D01*
X18413086Y9399914D02*
X18413086Y9886352D01*
M02*
