G04 #@! TF.FileFunction,Copper,L1,Top,Signal*
%FSLAX46Y46*%
G04 Gerber Fmt 4.6, Leading zero omitted, Abs format (unit mm)*
G04 Created by KiCad (PCBNEW 4.0.6-e0-6349~53~ubuntu16.04.1) date Mon Sep  4 23:14:24 2017*
%MOMM*%
%LPD*%
G01*
G04 APERTURE LIST*
%ADD10C,0.100000*%
%ADD11R,1.500000X1.250000*%
%ADD12R,1.200000X0.900000*%
%ADD13R,1.200000X0.500000*%
%ADD14R,0.500000X1.200000*%
%ADD15R,1.500000X0.600000*%
%ADD16R,1.000000X1.000000*%
%ADD17C,0.762000*%
%ADD18C,0.508000*%
%ADD19C,0.304800*%
G04 APERTURE END LIST*
D10*
D11*
X6203000Y11049000D03*
X3703000Y11049000D03*
D12*
X6053000Y14732000D03*
X3853000Y14732000D03*
X6137000Y0D03*
X3937000Y0D03*
D13*
X21791000Y16137000D03*
X21791000Y15387000D03*
X21791000Y14637000D03*
X21791000Y13887000D03*
X21791000Y13137000D03*
X21791000Y12387000D03*
X21791000Y11637000D03*
X21791000Y10887000D03*
X21791000Y10137000D03*
X21791000Y9387000D03*
X21791000Y8637000D03*
X21791000Y7887000D03*
X21791000Y7137000D03*
X21791000Y6387000D03*
X21791000Y5637000D03*
X21791000Y4887000D03*
D14*
X20641000Y4437000D03*
X19891000Y4437000D03*
X19141000Y4437000D03*
X18391000Y4437000D03*
X17641000Y4437000D03*
X16891000Y4437000D03*
X16141000Y4437000D03*
X15391000Y4437000D03*
X14641000Y4437000D03*
X13891000Y4437000D03*
X13141000Y4437000D03*
D13*
X11991000Y4887000D03*
X11991000Y5637000D03*
X11991000Y6387000D03*
X11991000Y7137000D03*
X11991000Y7887000D03*
X11991000Y8637000D03*
X11991000Y9387000D03*
X11991000Y10137000D03*
X11991000Y10887000D03*
X11991000Y11637000D03*
X11991000Y12387000D03*
X11991000Y13137000D03*
D15*
X7653000Y1778000D03*
X7653000Y3048000D03*
X7653000Y4318000D03*
X7653000Y5588000D03*
X7653000Y6858000D03*
X7653000Y8128000D03*
X7653000Y9398000D03*
X2253000Y9398000D03*
X2253000Y8128000D03*
X2253000Y6858000D03*
X2253000Y5588000D03*
X2253000Y4318000D03*
X2253000Y3048000D03*
X2253000Y1778000D03*
D16*
X3703000Y12954000D03*
X6203000Y12954000D03*
D17*
X8551657Y5588000D03*
X13843000Y5588000D03*
X13589000Y8255000D03*
X13208000Y0D03*
X21717000Y0D03*
X1270000Y13335000D03*
X1253838Y11383282D03*
X15391000Y6961000D03*
X16891000Y6223000D03*
X18631700Y5612300D03*
X19665000Y5613700D03*
X19177000Y3505200D03*
X16268200Y3229900D03*
X17641000Y3264700D03*
X14641000Y3216500D03*
X20475827Y10409177D03*
X18413086Y10425167D03*
D18*
X7653000Y5588000D02*
X8551657Y5588000D01*
X13886000Y5545000D02*
X13843000Y5588000D01*
X13891000Y5545000D02*
X13886000Y5545000D01*
X6137000Y5330000D02*
X6395000Y5588000D01*
X6137000Y0D02*
X6137000Y5330000D01*
X6203000Y5780000D02*
X6395000Y5588000D01*
X6203000Y11049000D02*
X6203000Y5780000D01*
X6395000Y5588000D02*
X7653000Y5588000D01*
X13891000Y4437000D02*
X13891000Y5545000D01*
X13030000Y8255000D02*
X13589000Y8255000D01*
X13030000Y8255000D02*
X13030000Y7874000D01*
X13030000Y4547800D02*
X13030000Y8255000D01*
X13030000Y8255000D02*
X13030000Y13137000D01*
X13141000Y67000D02*
X13208000Y0D01*
X13141000Y4437000D02*
X13141000Y67000D01*
X21791000Y74000D02*
X21717000Y0D01*
X21791000Y4887000D02*
X21791000Y74000D01*
X7394000Y13137000D02*
X7211000Y12954000D01*
X11991000Y13137000D02*
X7394000Y13137000D01*
X5195000Y12541000D02*
X3703000Y11049000D01*
X5195000Y12954000D02*
X5195000Y12541000D01*
X3511000Y9724000D02*
X3703000Y9916000D01*
X3511000Y9398000D02*
X3511000Y9724000D01*
X6203000Y12954000D02*
X5195000Y12954000D01*
X6203000Y12954000D02*
X7211000Y12954000D01*
X2253000Y9398000D02*
X3511000Y9398000D01*
X13141000Y4437000D02*
X13030000Y4547800D01*
X11991000Y13137000D02*
X13030000Y13137000D01*
X16030000Y16137000D02*
X21791000Y16137000D01*
X13030000Y13137000D02*
X16030000Y16137000D01*
X3703000Y11049000D02*
X3703000Y9916000D01*
X6053000Y14732000D02*
X6053000Y15277818D01*
X6053000Y15277818D02*
X5663067Y15667751D01*
X5663067Y15667751D02*
X4598179Y15667751D01*
X4593064Y15662636D02*
X3116736Y15662636D01*
X4598179Y15667751D02*
X4593064Y15662636D01*
X1270000Y13815900D02*
X1270000Y13335000D01*
X3116736Y15662636D02*
X1270000Y13815900D01*
X203000Y12268200D02*
X1270000Y13335000D01*
X203000Y8457800D02*
X203000Y12268200D01*
X995000Y7665900D02*
X203000Y8457800D01*
X995000Y6858000D02*
X995000Y7665900D01*
X2253000Y6858000D02*
X995000Y6858000D01*
X1253838Y11512838D02*
X1253838Y11383282D01*
X2695000Y12954000D02*
X1253838Y11512838D01*
X1803000Y8128000D02*
X995000Y8936000D01*
X2253000Y8128000D02*
X1803000Y8128000D01*
X995000Y11124444D02*
X1253838Y11383282D01*
X3703000Y12954000D02*
X2695000Y12954000D01*
X995000Y8936000D02*
X995000Y11124444D01*
X3853000Y14112000D02*
X3703000Y13962000D01*
X3853000Y14732000D02*
X3853000Y14112000D01*
X3703000Y12954000D02*
X3703000Y13962000D01*
X3937000Y0D02*
X5045000Y0D01*
X5045000Y0D02*
X5045000Y-583500D01*
X5045000Y-583500D02*
X5350500Y-889000D01*
X5350500Y-889000D02*
X7392525Y-889000D01*
X7392525Y-889000D02*
X11991000Y3709475D01*
X11991000Y3709475D02*
X11991000Y4887000D01*
X3511000Y1384000D02*
X3937000Y958000D01*
X3511000Y5588000D02*
X3511000Y1384000D01*
X2253000Y5588000D02*
X3511000Y5588000D01*
X3937000Y0D02*
X3937000Y958000D01*
D19*
X15391000Y4437000D02*
X15391000Y6961000D01*
X16891000Y4437000D02*
X16891000Y6223000D01*
X18391000Y4437000D02*
X18391000Y5443400D01*
X18462800Y5443400D02*
X18631700Y5612300D01*
X18391000Y5443400D02*
X18462800Y5443400D01*
X19891000Y4437000D02*
X19891000Y5443400D01*
X19835300Y5443400D02*
X19665000Y5613700D01*
X19891000Y5443400D02*
X19835300Y5443400D01*
X19177000Y4401000D02*
X19141000Y4437000D01*
X19177000Y3505200D02*
X19177000Y4401000D01*
X16141000Y3357100D02*
X16268200Y3229900D01*
X16141000Y4437000D02*
X16141000Y3357100D01*
D18*
X7653000Y1778000D02*
X8829824Y1778000D01*
X10959199Y3907375D02*
X10959199Y7732199D01*
X10959199Y7732199D02*
X11114000Y7887000D01*
X11114000Y7887000D02*
X11991000Y7887000D01*
X8829824Y1778000D02*
X10959199Y3907375D01*
X7653000Y3048000D02*
X8911000Y3048000D01*
X8911000Y3048000D02*
X10273388Y4410388D01*
X10273388Y4410388D02*
X10273388Y8016513D01*
X10273388Y8016513D02*
X10277136Y8020261D01*
X10277136Y8020261D02*
X10277136Y8198933D01*
X10277136Y8198933D02*
X10715203Y8637000D01*
X10715203Y8637000D02*
X10883000Y8637000D01*
X10883000Y8637000D02*
X11991000Y8637000D01*
X7653000Y4318000D02*
X8911000Y4318000D01*
X8911000Y4318000D02*
X9516578Y4923578D01*
X9516578Y4923578D02*
X9516578Y7194453D01*
X9520612Y7198487D02*
X9520612Y8507190D01*
X9516578Y7194453D02*
X9520612Y7198487D01*
X9520612Y8507190D02*
X10400422Y9387000D01*
X10400422Y9387000D02*
X11991000Y9387000D01*
X9914516Y10137000D02*
X10883000Y10137000D01*
X10883000Y10137000D02*
X11991000Y10137000D01*
X8834801Y9057285D02*
X9914516Y10137000D01*
X8210242Y6858000D02*
X8834801Y7482559D01*
X7653000Y6858000D02*
X8210242Y6858000D01*
X8834801Y7482559D02*
X8834801Y9057285D01*
D19*
X17641000Y4437000D02*
X17641000Y3264700D01*
X14641000Y4437000D02*
X14641000Y3216500D01*
D18*
X20475827Y10947992D02*
X20475827Y10409177D01*
X20475827Y12179827D02*
X20475827Y10947992D01*
X21791000Y12387000D02*
X20683000Y12387000D01*
X20683000Y12387000D02*
X20475827Y12179827D01*
X18413086Y10963982D02*
X18413086Y10425167D01*
X18413086Y11428086D02*
X18413086Y10963982D01*
X20122000Y13137000D02*
X18413086Y11428086D01*
X21791000Y13137000D02*
X20122000Y13137000D01*
M02*
